# xmcd CD database file
#
# Track frame offsets:
#	187
#	13827
#	26770
#	40407
#	50027
#	70462
#	89740
#	108007
#	125892
#	142950
#
# Disc length: 2079 seconds
#
# Revision: 2
# Processed by: cddbd v1.5.1PL2 Copyright (c) Steve Scherf et al.
# Submitted via: CDex 1.51
#
DISCID=95081d0a
DTITLE=Weezer - Pinkerton
DYEAR=1900
DGENRE=
TTITLE0=Tired Of Sex
TTITLE1=Getchoo
TTITLE2=No Other One
TTITLE3=Why Bother?
TTITLE4=Across The Sea
TTITLE5=The Good Life
TTITLE6=El Scorcho
TTITLE7=Pink Triangle
TTITLE8=Falling For You
TTITLE9=Butterfly
EXTD=
EXTT0=
EXTT1=
EXTT2=
EXTT3=
EXTT4=
EXTT5=
EXTT6=
EXTT7=
EXTT8=
EXTT9=
PLAYORDER=
